<svg xmlns="http://www.w3.org/2000/svg" xmlns:xlink="http://www.w3.org/1999/xlink" width="500" zoomAndPan="magnify" viewBox="0 0 375 374.999991" height="500" preserveAspectRatio="xMidYMid meet" version="1.0"><defs><g/><clipPath id="09a042860a"><path d="M 142.714844 252.625 L 231.964844 252.625 L 231.964844 257.875 L 142.714844 257.875 Z M 142.714844 252.625 " clip-rule="nonzero"/></clipPath></defs><rect x="-37.5" width="450" fill="#ffffff" y="-37.499999" height="449.999989" fill-opacity="1"/><rect x="-37.5" width="450" fill="#ffffff" y="-37.499999" height="449.999989" fill-opacity="1"/><rect x="-37.5" width="450" fill="#ffffff" y="-37.499999" height="449.999989" fill-opacity="1"/><g fill="#293041" fill-opacity="1"><g transform="translate(100.489165, 187.267192)"><g><path d="M 25.714844 -2.992188 C 15.933594 -2.992188 13.921875 -9.722656 13.921875 -20.25 L 13.921875 -39 L 1.378906 -39 L 1.378906 -15.015625 C 1.378906 -6.210938 9.320312 0.402344 20.074219 0.402344 C 25.769531 0.402344 33.59375 -2.242188 33.59375 -12.136719 L 33.59375 -39 L 21.054688 -39 L 21.054688 -17.257812 C 21.054688 -9.835938 28.015625 -10.238281 29.394531 -6.789062 C 29.96875 -5.351562 29.566406 -2.992188 25.714844 -2.992188 Z M 25.714844 -2.992188 "/></g></g></g><g fill="#293041" fill-opacity="1"><g transform="translate(135.46183, 187.267192)"><g><path d="M 1.324219 -31.121094 L 1.324219 0 L 13.921875 0 L 13.804688 -25.3125 C 13.804688 -27.382812 14.324219 -28.878906 15.820312 -28.648438 C 19.386719 -28.128906 17.429688 -18.582031 24.90625 -18.582031 C 29.796875 -18.582031 32.5 -21.570312 31.925781 -31.121094 L 30.429688 -31.121094 C 30.429688 -28.992188 29.796875 -27.382812 27.898438 -27.382812 C 25.082031 -27.382812 25.3125 -31.523438 18.582031 -31.523438 C 13.804688 -31.523438 12.253906 -27.554688 8.457031 -26.863281 C 5.292969 -26.289062 2.761719 -26.691406 2.761719 -31.121094 Z M 1.324219 -31.121094 "/></g></g></g><g fill="#293041" fill-opacity="1"><g transform="translate(168.478788, 187.267192)"><g><path d="M 18.808594 -31.523438 C 17.027344 -31.523438 15.417969 -30.832031 13.863281 -30.027344 L 13.863281 -39 L 12.425781 -39 C 12.425781 -31.003906 1.324219 -37.21875 1.324219 -29.738281 L 1.324219 0 L 2.761719 0 C 2.761719 -1.035156 4.429688 -4.027344 6.5 -4.3125 C 12.078125 -5.121094 14.554688 0.402344 20.421875 0.402344 C 26.980469 0.402344 35.835938 -6.15625 35.835938 -15.589844 C 35.835938 -24.964844 29.050781 -31.523438 18.808594 -31.523438 Z M 13.863281 -24.390625 C 13.863281 -26.863281 14.152344 -28.589844 15.359375 -29.222656 C 18.003906 -30.546875 22.722656 -24.332031 24.273438 -17.542969 C 25.886719 -10.929688 26.460938 -4.71875 23.125 -2.644531 C 20.59375 -1.035156 16.96875 -1.898438 13.863281 -5.695312 Z M 13.863281 -24.390625 "/></g></g></g><g fill="#293041" fill-opacity="1"><g transform="translate(205.29212, 187.267192)"><g><path d="M 20.9375 -31.523438 C 14.324219 -31.523438 10.699219 -27.382812 7.074219 -27.382812 C 5.175781 -27.382812 4.542969 -28.992188 4.542969 -31.121094 L 3.046875 -31.121094 C 2.011719 -21.570312 4.371094 -18.582031 9.261719 -18.582031 C 16.738281 -18.582031 14.09375 -28.648438 17.890625 -29.738281 C 21.515625 -30.773438 23.296875 -28.246094 21.917969 -17.832031 C 20.421875 -18.003906 18.808594 -18.0625 17.027344 -18.0625 C 6.269531 -18.0625 1.035156 -14.898438 1.035156 -8.917969 C 1.035156 -2.992188 5.695312 0.230469 15.933594 0.230469 C 20.765625 0.230469 22.261719 -1.324219 22.605469 -3.507812 C 27.09375 3.625 37.851562 -0.804688 41.878906 -6.15625 L 41.015625 -7.074219 C 39.175781 -5.234375 37.277344 -4.832031 35.78125 -6.15625 C 33.535156 -8.109375 33.824219 -11.332031 34.570312 -15.933594 C 36.011719 -24.90625 30.832031 -31.523438 20.9375 -31.523438 Z M 21.109375 -10.066406 C 21.109375 -6.558594 21.570312 -2.589844 20.191406 -1.957031 C 17.949219 -0.863281 15.472656 -2.53125 13.402344 -7.765625 C 11.792969 -11.734375 12.078125 -14.957031 14.324219 -16.050781 C 15.933594 -16.855469 18.753906 -16.910156 21.742188 -16.507812 L 21.742188 -16.277344 C 21.398438 -14.152344 21.167969 -12.023438 21.109375 -10.066406 Z M 21.109375 -10.066406 "/></g></g></g><g fill="#293041" fill-opacity="1"><g transform="translate(241.127593, 187.267192)"><g><path d="M 1.324219 -31.121094 L 1.324219 0 L 13.921875 0 L 13.921875 -24.101562 C 13.976562 -26.402344 14.4375 -28.128906 16.105469 -28.648438 C 19.5 -29.738281 22.492188 -28.070312 20.707031 -16.277344 C 19.960938 -11.21875 19.386719 -6.269531 22.148438 -2.761719 C 27.035156 3.335938 36.988281 -1.09375 40.84375 -6.15625 L 39.980469 -7.074219 C 38.136719 -5.234375 36.238281 -4.832031 34.746094 -6.15625 C 32.5 -8.109375 32.847656 -11.332031 33.535156 -15.933594 C 34.972656 -24.90625 29.855469 -31.523438 19.902344 -31.523438 C 15.472656 -31.523438 12.367188 -27.726562 8.972656 -26.921875 C 5.636719 -26.117188 2.761719 -26.460938 2.761719 -31.121094 Z M 1.324219 -31.121094 "/></g></g></g><g fill="#293041" fill-opacity="1"><g transform="translate(69.799077, 228.902327)"><g><path d="M 4.832031 -23.355469 L 5.867188 -24.332031 C 4.371094 -25.425781 4.542969 -28.878906 7.363281 -28.878906 C 8.628906 -28.878906 10.410156 -27.957031 12.65625 -26.980469 L 12.65625 0 L 25.253906 0 L 25.253906 -17.429688 C 25.253906 -23.757812 17.140625 -19.328125 14.726562 -26.117188 C 17.085938 -25.195312 19.847656 -24.449219 23.066406 -24.449219 C 28.761719 -24.449219 36.816406 -28.359375 36.816406 -38.945312 L 35.378906 -38.945312 C 35.378906 -36.183594 33.480469 -33.25 29.511719 -33.25 C 25.539062 -33.25 19.902344 -39.347656 11.332031 -39.347656 C 2.761719 -39.347656 1.035156 -33.078125 1.035156 -30.085938 C 1.035156 -27.152344 2.703125 -25.136719 4.832031 -23.355469 Z M 4.832031 -23.355469 "/></g></g></g><g fill="#293041" fill-opacity="1"><g transform="translate(107.647788, 228.902327)"><g><path d="M 12.425781 -39 C 12.425781 -31.003906 1.324219 -37.21875 1.324219 -29.738281 L 1.324219 0 L 13.921875 0 L 13.921875 -24.101562 C 13.976562 -26.402344 14.4375 -28.128906 16.105469 -28.648438 C 19.5 -29.738281 22.492188 -28.070312 20.707031 -16.277344 C 19.960938 -11.21875 19.386719 -6.269531 22.148438 -2.761719 C 26.980469 3.335938 36.988281 -1.09375 40.84375 -6.15625 L 39.921875 -7.074219 C 38.136719 -5.234375 36.238281 -4.832031 34.746094 -6.15625 C 32.5 -8.109375 32.789062 -11.332031 33.535156 -15.933594 C 34.972656 -24.90625 29.796875 -31.523438 19.902344 -31.523438 C 17.542969 -31.523438 15.703125 -30.546875 13.921875 -29.511719 L 13.921875 -39 Z M 12.425781 -39 "/></g></g></g><g fill="#293041" fill-opacity="1"><g transform="translate(142.39037, 228.902327)"><g><path d="M 1.324219 -31.121094 L 1.324219 0 L 13.921875 0 L 13.804688 -25.3125 C 13.804688 -27.382812 14.324219 -28.878906 15.820312 -28.648438 C 19.386719 -28.128906 17.429688 -18.582031 24.90625 -18.582031 C 29.796875 -18.582031 32.5 -21.570312 31.925781 -31.121094 L 30.429688 -31.121094 C 30.429688 -28.992188 29.796875 -27.382812 27.898438 -27.382812 C 25.082031 -27.382812 25.3125 -31.523438 18.582031 -31.523438 C 13.804688 -31.523438 12.253906 -27.554688 8.457031 -26.863281 C 5.292969 -26.289062 2.761719 -26.691406 2.761719 -31.121094 Z M 1.324219 -31.121094 "/></g></g></g><g fill="#293041" fill-opacity="1"><g transform="translate(175.407328, 228.902327)"><g><path d="M 13.117188 -14.035156 C 33.824219 -19.097656 33.363281 -31.523438 18.175781 -31.523438 C 7.878906 -31.523438 0.976562 -24.964844 0.976562 -15.589844 C 0.976562 -6.15625 7.878906 0.402344 18.175781 0.402344 C 26.921875 0.402344 30.546875 -2.53125 35.433594 -8.109375 C 35.089844 -8.457031 34.746094 -8.859375 34.34375 -9.203125 C 27.726562 -1.898438 20.535156 -2.300781 13.863281 -12.828125 C 13.574219 -13.230469 13.34375 -13.632812 13.117188 -14.035156 Z M 18.003906 -24.964844 C 20.996094 -20.132812 17.199219 -16.222656 12.367188 -15.242188 C 8.570312 -21.742188 7.019531 -26.632812 9.953125 -28.53125 C 12.136719 -29.914062 15.589844 -28.878906 18.003906 -24.964844 Z M 18.003906 -24.964844 "/></g></g></g><g fill="#293041" fill-opacity="1"><g transform="translate(205.720802, 228.902327)"><g><path d="M 20.9375 -31.523438 C 14.324219 -31.523438 10.699219 -27.382812 7.074219 -27.382812 C 5.175781 -27.382812 4.542969 -28.992188 4.542969 -31.121094 L 3.046875 -31.121094 C 2.011719 -21.570312 4.371094 -18.582031 9.261719 -18.582031 C 16.738281 -18.582031 14.09375 -28.648438 17.890625 -29.738281 C 21.515625 -30.773438 23.296875 -28.246094 21.917969 -17.832031 C 20.421875 -18.003906 18.808594 -18.0625 17.027344 -18.0625 C 6.269531 -18.0625 1.035156 -14.898438 1.035156 -8.917969 C 1.035156 -2.992188 5.695312 0.230469 15.933594 0.230469 C 20.765625 0.230469 22.261719 -1.324219 22.605469 -3.507812 C 27.09375 3.625 37.851562 -0.804688 41.878906 -6.15625 L 41.015625 -7.074219 C 39.175781 -5.234375 37.277344 -4.832031 35.78125 -6.15625 C 33.535156 -8.109375 33.824219 -11.332031 34.570312 -15.933594 C 36.011719 -24.90625 30.832031 -31.523438 20.9375 -31.523438 Z M 21.109375 -10.066406 C 21.109375 -6.558594 21.570312 -2.589844 20.191406 -1.957031 C 17.949219 -0.863281 15.472656 -2.53125 13.402344 -7.765625 C 11.792969 -11.734375 12.078125 -14.957031 14.324219 -16.050781 C 15.933594 -16.855469 18.753906 -16.910156 21.742188 -16.507812 L 21.742188 -16.277344 C 21.398438 -14.152344 21.167969 -12.023438 21.109375 -10.066406 Z M 21.109375 -10.066406 "/></g></g></g><g fill="#293041" fill-opacity="1"><g transform="translate(241.556267, 228.902327)"><g><path d="M 18.0625 0.402344 C 22.722656 0.402344 26.574219 -4.3125 30.027344 -4.3125 C 31.984375 -4.3125 34.113281 -4.140625 34.113281 0 L 35.550781 0 L 35.550781 -29.738281 C 35.550781 -37.21875 24.390625 -31.003906 24.390625 -39 L 22.953125 -39 L 22.953125 -28.820312 C 20.535156 -30.773438 18.0625 -31.523438 16.453125 -31.523438 C 9.894531 -31.523438 1.035156 -24.964844 1.035156 -15.589844 C 1.035156 -6.15625 7.765625 0.402344 18.0625 0.402344 Z M 21.515625 -1.957031 C 18.867188 -0.574219 14.152344 -6.789062 12.539062 -13.574219 C 10.988281 -20.191406 10.410156 -26.402344 13.691406 -28.53125 C 16.164062 -30.085938 19.789062 -29.222656 22.953125 -25.484375 L 22.953125 -9.089844 C 22.953125 -5.292969 23.007812 -2.761719 21.515625 -1.957031 Z M 21.515625 -1.957031 "/></g></g></g><g fill="#293041" fill-opacity="1"><g transform="translate(278.427119, 228.902327)"><g><path d="M 13.117188 -23.527344 C 4.832031 -25.597656 6.15625 -30.085938 9.550781 -30.085938 C 13.519531 -30.085938 15.875 -22.089844 20.421875 -22.089844 C 25.367188 -22.089844 26.460938 -28.359375 26.460938 -31.121094 L 24.964844 -31.121094 C 24.964844 -29.394531 23.066406 -28.53125 20.882812 -28.53125 C 16.855469 -28.53125 14.785156 -31.523438 9.550781 -31.523438 C 4.945312 -31.523438 0.921875 -26.804688 1.09375 -21.859375 C 1.265625 -15.300781 7.019531 -11.675781 12.425781 -10.640625 C 18.808594 -9.433594 20.882812 -6.960938 21.398438 -4.773438 C 21.859375 -2.761719 20.59375 -1.378906 19.15625 -1.265625 C 15.128906 -0.921875 15.1875 -10.757812 7.707031 -10.757812 C 1.609375 -10.757812 1.4375 -2.820312 1.4375 0 L 2.875 0 C 2.875 -2.128906 4.027344 -3.335938 6.441406 -3.335938 C 10.410156 -3.335938 11.90625 0.402344 17.140625 0.402344 C 24.390625 0.402344 27.035156 -5.003906 27.207031 -10.527344 C 27.4375 -17.832031 21.859375 -21.285156 13.117188 -23.527344 Z M 13.117188 -23.527344 "/></g></g></g><g clip-path="url(#09a042860a)"><path fill="#000000" d="M 222.652344 257.875 C 220.351562 257.875 219.203125 256.613281 218.082031 255.394531 C 216.976562 254.1875 215.9375 253.050781 213.824219 253.050781 C 211.707031 253.050781 210.667969 254.1875 209.5625 255.394531 C 208.441406 256.613281 207.292969 257.875 204.996094 257.875 C 202.695312 257.875 201.546875 256.613281 200.425781 255.394531 C 199.320312 254.1875 198.28125 253.050781 196.167969 253.050781 C 194.050781 253.050781 193.011719 254.1875 191.90625 255.394531 C 190.785156 256.613281 189.636719 257.875 187.339844 257.875 C 185.039062 257.875 183.890625 256.613281 182.769531 255.394531 C 181.664062 254.1875 180.625 253.050781 178.511719 253.050781 C 176.394531 253.050781 175.355469 254.1875 174.25 255.394531 C 173.128906 256.613281 171.980469 257.875 169.683594 257.875 C 167.382812 257.875 166.234375 256.613281 165.113281 255.394531 C 164.007812 254.1875 162.96875 253.050781 160.855469 253.050781 C 158.738281 253.050781 157.703125 254.1875 156.59375 255.394531 C 155.472656 256.613281 154.324219 257.875 152.027344 257.875 C 149.726562 257.875 148.578125 256.613281 147.457031 255.394531 C 146.351562 254.1875 145.3125 253.050781 143.199219 253.050781 C 143.085938 253.050781 142.988281 252.953125 142.988281 252.839844 C 142.988281 252.726562 143.085938 252.625 143.199219 252.625 C 145.496094 252.625 146.644531 253.890625 147.765625 255.109375 C 148.875 256.316406 149.910156 257.449219 152.027344 257.449219 C 154.140625 257.449219 155.179688 256.316406 156.285156 255.109375 C 157.40625 253.890625 158.554688 252.625 160.855469 252.625 C 163.152344 252.625 164.300781 253.890625 165.421875 255.109375 C 166.527344 256.316406 167.566406 257.449219 169.683594 257.449219 C 171.796875 257.449219 172.835938 256.316406 173.941406 255.109375 C 175.0625 253.890625 176.210938 252.625 178.511719 252.625 C 180.808594 252.625 181.957031 253.890625 183.078125 255.109375 C 184.183594 256.316406 185.222656 257.449219 187.339844 257.449219 C 189.453125 257.449219 190.492188 256.316406 191.597656 255.109375 C 192.71875 253.890625 193.867188 252.625 196.167969 252.625 C 198.464844 252.625 199.613281 253.890625 200.734375 255.109375 C 201.839844 256.316406 202.878906 257.449219 204.996094 257.449219 C 207.109375 257.449219 208.148438 256.316406 209.253906 255.109375 C 210.375 253.890625 211.523438 252.625 213.824219 252.625 C 216.121094 252.625 217.269531 253.890625 218.390625 255.109375 C 219.496094 256.316406 220.535156 257.449219 222.652344 257.449219 C 224.765625 257.449219 225.804688 256.316406 226.910156 255.109375 C 228.03125 253.890625 229.179688 252.625 231.480469 252.625 C 231.589844 252.625 231.6875 252.726562 231.6875 252.839844 C 231.6875 252.953125 231.589844 253.050781 231.480469 253.050781 C 229.363281 253.050781 228.324219 254.1875 227.21875 255.394531 C 226.097656 256.613281 224.949219 257.875 222.652344 257.875 Z M 222.652344 257.875 " fill-opacity="1" fill-rule="nonzero"/></g></svg>